<svg width="16" height="16" viewBox="0 0 16 16" fill="none" xmlns="http://www.w3.org/2000/svg">
<path d="M1.30003 7.00056C0.747744 7.00056 0.314944 7.44802 0.333344 8C0.351743 8.55198 0.814374 8.99944 1.36666 8.99944L1.30003 7.00056ZM15.3973 8.70671C15.7749 8.31641 15.7538 7.68359 15.3502 7.29329L8.77425 0.932857C8.37072 0.54255 7.73755 0.54255 7.36004 0.932857C6.98252 1.32316 7.00362 1.95598 7.40715 2.34629L13.2525 8L7.78407 13.6537C7.40655 14.044 7.42765 14.6768 7.83118 15.0671C8.23472 15.4575 8.86788 15.4575 9.24539 15.0671L15.3973 8.70671ZM1.36666 8.99944H14.7L14.6334 7.00056H1.30003L1.36666 8.99944Z" fill="white"/>
</svg>
