<svg width="214" height="18" viewBox="0 0 214 18" fill="none" xmlns="http://www.w3.org/2000/svg">
<path d="M201.305 10.1637H205.027L203.391 5.72107C203.342 5.59391 203.235 5.33959 203.162 5.33959C203.088 5.33959 202.982 5.59391 202.925 5.72107L201.305 10.1637ZM199.031 2.15263C199.587 0.849232 200.405 0.0147411 203.17 0.0147411C204.904 0.0147411 206.442 0.189587 207.301 2.15263L214 17.8013H207.849L206.426 14.1852H199.882L198.467 17.8013H192.307L199.031 2.15263ZM185.812 17.8013L180.332 10.9982C179.763 10.3844 179.394 9.62148 179.269 8.80471C179.35 8.09218 179.633 7.41553 180.087 6.84962L184.994 0.221377H191.923L185.641 7.47747C184.962 8.27222 184.888 8.62986 184.888 8.78087C185.012 9.40091 185.35 9.96148 185.845 10.3704L192.88 17.8013H185.812ZM172.856 0.221377H178.704V17.8013H172.856V0.221377ZM163.801 17.8013L164.054 7.46952C164.054 7.14368 164.054 6.81783 163.801 6.81783C163.547 6.81783 163.49 7.09599 163.13 7.66821L157.985 16.2118C157.494 17.0463 156.586 18 154.075 18C150.508 18 150.042 15.886 150.042 13.7799V0.221377H155.989L155.735 10.2909V10.5691C155.735 10.7916 155.735 11.1731 156.046 11.1731C156.193 11.1731 156.324 10.9426 156.561 10.5452L161.551 2.07315C161.922 1.39605 162.49 0.839882 163.183 0.47388C163.877 0.107879 164.666 -0.051793 165.453 0.0147411C169.592 0.0147411 169.747 2.93148 169.747 4.36204V17.8013H163.801ZM136.693 17.8013V4.58457H130.231V0.221377H149.003V4.58457H142.541V17.8013H136.693ZM118.1 4.44151C117.939 4.41493 117.775 4.42324 117.618 4.46583C117.461 4.50843 117.315 4.58426 117.192 4.68789C117.097 4.81479 117.028 4.95877 116.99 5.11153C116.952 5.26429 116.946 5.42282 116.971 5.57801V17.8013H111.123V2.75664C111.105 2.4281 111.158 2.09962 111.278 1.79188C111.397 1.48413 111.581 1.20378 111.818 0.968445C112.189 0.667186 112.621 0.445013 113.086 0.316318C113.551 0.187623 114.039 0.155277 114.517 0.221377H125.846C126.91 0.221377 127.76 0.221377 128.513 0.968445C128.749 1.20378 128.933 1.48413 129.053 1.79188C129.173 2.09962 129.226 2.4281 129.208 2.75664V17.8013H123.36V5.57801C123.381 5.41821 123.369 5.25591 123.326 5.10044C123.282 4.94496 123.208 4.79936 123.106 4.67199C122.981 4.57155 122.835 4.49772 122.679 4.45529C122.523 4.41285 122.359 4.40274 122.198 4.42562L118.1 4.44151ZM95.7773 12.389C96.5953 13.5494 97.585 13.6765 99.0492 13.6765C100.513 13.6765 101.503 13.5494 102.321 12.389C102.992 11.4353 102.992 10.4578 102.992 9.05108C102.992 7.51721 102.992 6.66682 102.321 5.70517C101.503 4.55278 100.562 4.42562 99.0492 4.42562C97.536 4.42562 96.5462 4.55278 95.7773 5.70517C95.1311 6.64298 95.1066 7.59668 95.1066 9.05108C94.9859 10.2037 95.2193 11.3652 95.7773 12.389ZM106.975 1.82678C108.939 3.58318 109.02 6.65093 109.02 8.97955C109.02 11.3082 108.939 14.3839 106.975 16.1323C105.012 17.8808 101.749 17.9444 99.0574 17.9444C96.3663 17.9444 93.0616 17.8649 91.1475 16.1323C89.2335 14.3998 89.1026 11.2605 89.1026 8.97955C89.1026 6.69861 89.1844 3.55139 91.1475 1.82678C93.1107 0.102164 96.3172 0.0147411 99.0574 0.0147411C101.798 0.0147411 105.037 0.0942163 106.975 1.82678ZM79.794 17.8013C76.9719 17.8013 75.0824 17.4278 73.61 15.6396C72.5221 14.3362 71.9741 12.6036 71.9741 9.23388C71.9741 6.29329 72.2604 4.08388 73.5528 2.50232C75.1887 0.443908 77.8308 0.221377 79.8676 0.221377H87.5239V4.58457H82.6896C80.7756 4.58457 79.3523 4.58457 78.5506 5.96744C78.1046 6.96898 77.9004 8.0564 77.9535 9.14645C77.8598 10.1364 78.0113 11.1338 78.3952 12.0552C79.2132 13.4381 80.8492 13.4381 82.7878 13.4381H87.8102V17.8093L79.794 17.8013ZM65.9538 17.8013L60.4733 10.9982C59.9048 10.3844 59.535 9.62148 59.4099 8.80471C59.4917 8.09218 59.7748 7.41553 60.2279 6.84962L65.0949 0.221377H72.0313L65.7493 7.47747C65.0703 8.27222 64.9967 8.62986 64.9967 8.78087C65.1207 9.40091 65.4582 9.96148 65.9538 10.3704L72.9884 17.8013H65.9538ZM52.9969 0.221377H58.8373V17.8013H52.9969V0.221377ZM37.1608 12.3493C37.9788 13.5096 38.9768 13.6368 40.4328 13.6368C41.8888 13.6368 42.8867 13.5096 43.7047 12.3493C44.3836 11.3956 44.3836 10.4181 44.3836 9.01134C44.3836 7.47747 44.3836 6.62709 43.7047 5.66543C42.8867 4.51304 41.946 4.38588 40.4328 4.38588C38.9195 4.38588 37.9216 4.51304 37.1608 5.66543C36.5146 6.60324 36.4901 7.55695 36.4901 9.01134C36.3734 10.1638 36.6066 11.3242 37.1608 12.3493ZM30.5434 6.84962C30.5227 4.98889 31.237 3.19128 32.5393 1.82678C34.4779 0.0942163 37.7334 0.0147411 40.4491 0.0147411C43.1648 0.0147411 46.4204 0.0942163 48.359 1.82678C50.2976 3.55934 50.4039 6.65093 50.4039 8.97955C50.4039 11.3082 50.3221 14.3839 48.359 16.1323C46.3958 17.8808 43.1403 17.9444 40.4491 17.9444C37.758 17.9444 34.4451 17.8649 32.5393 16.1323C31.1896 14.9005 30.4943 12.6354 30.4943 10.6803H28.0894V17.7377H22.2409V0.221377H28.0894V6.84962H30.5434ZM6.95283 1.82678C7.70537 0.118059 9.75033 0.0147411 10.8628 0.0147411C11.9752 0.0147411 14.012 0.118059 14.7645 1.82678L21.7256 17.8013H15.5416L11.1491 6.17408C11.0918 6.07076 10.9937 5.74491 10.8628 5.74491C10.7319 5.74491 10.6256 6.07076 10.5765 6.17408L6.20847 17.8013H0L6.95283 1.82678Z" fill="#0DAC49"/>
</svg>