<svg width="32" height="20" viewBox="0 0 32 20" fill="none" xmlns="http://www.w3.org/2000/svg">
<path d="M20.2105 2.5H11.7895V17.5H20.2105V2.5Z" fill="#95A0A6"/>
<path d="M12.4216 9.99889C12.4205 8.61089 12.7421 7.24083 13.362 5.99239C13.982 4.74395 14.8841 3.64985 16 2.79287C14.6179 1.73011 12.958 1.06923 11.2102 0.885789C9.46233 0.702344 7.69699 1.00373 6.11593 1.75549C4.53486 2.50726 3.20185 3.67908 2.26926 5.13702C1.33666 6.59497 0.842102 8.28022 0.842102 10.0002C0.842102 11.7201 1.33666 13.4054 2.26926 14.8633C3.20185 16.3212 4.53486 17.4931 6.11593 18.2448C7.69699 18.9966 9.46233 19.298 11.2102 19.1145C12.958 18.9311 14.6179 18.2702 16 17.2074C14.8837 16.3502 13.9814 15.2557 13.3615 14.0068C12.7415 12.7579 12.4201 11.3873 12.4216 9.99889V9.99889Z" fill="#95A0A6" stroke="white"/>
<path d="M31.1579 10.0014C31.1579 11.7213 30.6632 13.4065 29.7305 14.8643C28.7979 16.3221 27.4648 17.4938 25.8837 18.2454C24.3025 18.9969 22.5372 19.2981 20.7894 19.1144C19.0416 18.9307 17.3819 18.2696 16 17.2066C17.1154 16.349 18.0171 15.2547 18.6372 14.0063C19.2572 12.758 19.5794 11.3881 19.5794 10.0002C19.5794 8.6122 19.2572 7.24235 18.6372 5.99399C18.0171 4.74563 17.1154 3.65134 16 2.79371C17.3819 1.73073 19.0416 1.06961 20.7894 0.885926C22.5372 0.702239 24.3025 1.00339 25.8837 1.75497C27.4648 2.50654 28.7979 3.6782 29.7305 5.13603C30.6632 6.59385 31.1579 8.27902 31.1579 9.99889V10.0014Z" fill="#95A0A6" stroke="white"/>
</svg>
