<?xml version="1.0" encoding="utf-8"?>
<!-- Generator: Adobe Illustrator 23.0.3, SVG Export Plug-In . SVG Version: 6.00 Build 0)  -->
<svg version="1.1" id="Слой_1" xmlns="http://www.w3.org/2000/svg" xmlns:xlink="http://www.w3.org/1999/xlink" x="0px" y="0px"
	 viewBox="0 0 115 53" style="enable-background:new 0 0 115 53;" xml:space="preserve">
<style type="text/css">
	.st0{fill:#667780;}
</style>
<path class="st0" d="M112.9,15.3c-0.5-0.5-1.2-0.8-1.9-0.8h-4.4C94,4.3,76.9,7.1,65.1,13.2c-0.1,0-0.2-0.1-0.5-0.2
	c-5-2.3-9.5-2.3-14.6,0c-0.3,0.1-0.4,0.2-0.5,0.2C37.7,7.1,20.7,4.3,8,14.5H3.6c-0.7,0-1.4,0.3-1.9,0.8c-0.5,0.5-0.8,1.2-0.8,1.9
	v5.4c0,0.7,0.3,1.4,0.8,1.9c0.5,0.5,1.2,0.8,1.9,0.8h1.9c1.7,13,11.5,22.6,23.7,22.9c0.2,0,0.5,0,0.7,0c13.5,0,23.9-9.3,25-22.5
	c0.1-1-0.3-1.8-1.2-2.2l-0.1-0.1c-0.8-0.4-1.3-0.7-1.2-1.3c0.1-0.5,0.6-1.1,1.4-1.5c2.2-1.2,5-1.2,7.2,0c0.8,0.4,1.3,1,1.4,1.5
	c0.1,0.6-0.4,0.9-1.2,1.3l-0.1,0.1c-0.6,0.3-1.3,0.9-1.2,2.2C60.8,39,71.6,48.5,85.4,48.1c12.2-0.3,22.1-9.9,23.7-22.9h1.9
	c0.7,0,1.4-0.3,1.9-0.8c0.5-0.5,0.8-1.2,0.8-1.9v-5.4C113.7,16.5,113.4,15.8,112.9,15.3z M64,26c0.9-0.5,2.5-1.5,2.3-4.3v0
	c-0.3-4-4.8-5.9-9-5.9c-4.1,0-8.7,1.8-9,5.9c-0.2,2.8,1.4,3.8,2.4,4.3l0,0.2C50.4,37.1,39.4,44.2,29.3,44C17.6,43.7,10,33.1,9.5,23
	l0-0.1c0-0.6-0.1-1.7-2.1-1.8H5.1v-2.3l3.6,0c0.5,0,1-0.1,1.4-0.5c9.5-8.1,23.8-8.5,38.1-1.1c1.3,0.7,2.4,0.2,3.6-0.4
	c3.9-1.8,7.1-1.8,11.1,0c1.3,0.6,2.3,1.1,3.6,0.4c14.3-7.4,28.6-7,38.1,1.1c0.4,0.4,0.9,0.5,1.4,0.5h3.6V21l-2.3,0
	c-1.9,0.1-2,1.2-2,1.8l0,0.2c-0.5,10.1-8.1,20.6-19.8,20.9c-10.1,0.2-21.1-6.8-21.4-17.7L64,26L64,26z"/>
</svg>
