<svg width="280" height="280" viewBox="0 0 280 280" fill="none" xmlns="http://www.w3.org/2000/svg">
<mask id="mask0" mask-type="alpha" maskUnits="userSpaceOnUse" x="0" y="0" width="280" height="280">
<rect width="280" height="280" rx="140" fill="white"/>
</mask>
<g mask="url(#mask0)">
<rect width="280" height="280" rx="140" fill="#0DAC49"/>
<path opacity="0.1" fill-rule="evenodd" clip-rule="evenodd" d="M422 140C422 295.744 295.744 422 140 422C-15.7443 422 -142 295.744 -142 140C-142 -15.7443 -15.7443 -142 140 -142C295.744 -142 422 -15.7443 422 140ZM424 140C424 296.849 296.849 424 140 424C-16.8489 424 -144 296.849 -144 140C-144 -16.8489 -16.8489 -144 140 -144C296.849 -144 424 -16.8489 424 140ZM340.857 140C340.857 250.93 250.93 340.857 140 340.857C29.0697 340.857 -60.8571 250.93 -60.8571 140C-60.8571 29.0697 29.0697 -60.8571 140 -60.8571C250.93 -60.8571 340.857 29.0697 340.857 140ZM342.857 140C342.857 252.035 252.035 342.857 140 342.857C27.9651 342.857 -62.8571 252.035 -62.8571 140C-62.8571 27.9651 27.9651 -62.8571 140 -62.8571C252.035 -62.8571 342.857 27.9651 342.857 140ZM140 300.286C228.523 300.286 300.286 228.523 300.286 140C300.286 51.4766 228.523 -20.2858 140 -20.2858C51.4766 -20.2858 -20.2858 51.4766 -20.2858 140C-20.2858 228.523 51.4766 300.286 140 300.286ZM140 302.286C229.628 302.286 302.286 229.628 302.286 140C302.286 50.372 229.628 -22.2858 140 -22.2858C50.372 -22.2858 -22.2858 50.372 -22.2858 140C-22.2858 229.628 50.372 302.286 140 302.286ZM259.714 140C259.714 206.116 206.116 259.714 140 259.714C73.8836 259.714 20.2857 206.116 20.2857 140C20.2857 73.8836 73.8836 20.2857 140 20.2857C206.116 20.2857 259.714 73.8836 259.714 140ZM261.714 140C261.714 207.221 207.221 261.714 140 261.714C72.7791 261.714 18.2857 207.221 18.2857 140C18.2857 72.7791 72.7791 18.2857 140 18.2857C207.221 18.2857 261.714 72.7791 261.714 140ZM140 219.143C183.709 219.143 219.143 183.709 219.143 140C219.143 96.2906 183.709 60.8571 140 60.8571C96.2906 60.8571 60.8571 96.2906 60.8571 140C60.8571 183.709 96.2906 219.143 140 219.143ZM140 221.143C184.814 221.143 221.143 184.814 221.143 140C221.143 95.186 184.814 58.8571 140 58.8571C95.186 58.8571 58.8571 95.186 58.8571 140C58.8571 184.814 95.186 221.143 140 221.143ZM178.571 140C178.571 161.302 161.302 178.571 140 178.571C118.698 178.571 101.429 161.302 101.429 140C101.429 118.698 118.698 101.429 140 101.429C161.302 101.429 178.571 118.698 178.571 140ZM180.571 140C180.571 162.407 162.407 180.571 140 180.571C117.593 180.571 99.4286 162.407 99.4286 140C99.4286 117.593 117.593 99.4286 140 99.4286C162.407 99.4286 180.571 117.593 180.571 140Z" fill="#CFEEDB"/>
</g>
</svg>
