<svg width="45" height="14" viewBox="0 0 45 14" fill="none" xmlns="http://www.w3.org/2000/svg">
<path d="M19.5 13.7983H15.8546L18.1347 0.245904H21.7798L19.5 13.7983Z" fill="#95A0A6"/>
<path d="M32.7145 0.576978C31.9955 0.302765 30.8551 0 29.445 0C25.8451 0 23.3101 1.84533 23.2945 4.4836C23.2646 6.43011 25.1095 7.51125 26.4893 8.16028C27.8997 8.82349 28.3791 9.25636 28.3791 9.84752C28.3647 10.7554 27.2395 11.1739 26.1899 11.1739C24.7346 11.1739 23.9547 10.9582 22.7697 10.4531L22.2897 10.2365L21.7796 13.2787C22.6345 13.6532 24.2097 13.9854 25.8451 14C29.67 14 32.1602 12.1832 32.1897 9.37172C32.2042 7.82896 31.23 6.64684 29.1298 5.68087C27.8548 5.06077 27.074 4.64265 27.074 4.00819C27.089 3.4314 27.7344 2.84062 29.1737 2.84062C30.3587 2.81169 31.2294 3.08552 31.8891 3.35954L32.2188 3.50345L32.7145 0.576978Z" fill="#95A0A6"/>
<path d="M37.5595 8.99716C37.8597 8.21859 39.0149 5.20531 39.0149 5.20531C38.9997 5.23425 39.3145 4.41238 39.4945 3.90783L39.7492 5.07558C39.7492 5.07558 40.4395 8.31958 40.5894 8.99716C40.0197 8.99716 38.2795 8.99716 37.5595 8.99716ZM42.0592 0.245904H39.2395C38.37 0.245904 37.7094 0.490799 37.3342 1.37035L31.9196 13.7981H35.7445C35.7445 13.7981 36.3742 12.1254 36.5096 11.7652C36.9292 11.7652 40.65 11.7652 41.1898 11.7652C41.2945 12.241 41.6248 13.7981 41.6248 13.7981H45L42.0592 0.245904Z" fill="#95A0A6"/>
<path d="M12.8099 0.245904L9.23997 9.48733L8.84986 7.61306C8.18985 5.4504 6.11991 3.10071 3.80997 1.93238L7.07993 13.7839H10.9348L16.6646 0.245904H12.8099Z" fill="#95A0A6"/>
<path d="M5.92496 0.245904H0.0600008L0 0.519734C4.57503 1.64437 7.60499 4.35469 8.84986 7.61306L7.57489 1.38511C7.36499 0.519543 6.71992 0.274456 5.92496 0.245904Z" fill="#95A0A6"/>
</svg>
